<svg width="970" height="970" viewBox="0 0 970 970" fill="none" xmlns="http://www.w3.org/2000/svg">
<path d="M484.654 0C752.321 0.000148441 969.308 216.987 969.308 484.654C969.307 752.321 752.321 969.307 484.654 969.308C216.987 969.308 0.000148519 752.321 0 484.654C0 216.987 216.987 0 484.654 0ZM483.89 97.1016C407.384 97.1032 332.596 119.835 268.986 162.423C205.376 205.011 155.8 265.541 126.528 336.359C97.2564 407.177 89.6033 485.102 104.537 560.277C119.471 635.453 156.32 704.504 210.426 758.696C246.258 794.792 288.88 823.41 335.824 842.894C382.769 862.377 433.104 872.34 483.917 872.205H488.125C489.99 872.205 491.842 872.205 493.735 872.135C571.378 870.38 646.711 845.328 709.99 800.219C713.44 797.914 716.774 795.46 719.99 792.855C730.911 784.523 741.38 775.611 751.351 766.157C815.273 705.298 856.64 624.47 868.657 536.946C868.985 534.567 869.154 532.168 869.162 529.767C869.663 527.747 870.024 525.695 870.242 523.626C876.917 457.439 866.475 390.644 839.92 329.671C809.878 260.669 760.424 201.929 697.604 160.627C634.783 119.325 561.314 97.2514 486.176 97.1016H483.89ZM628.11 497.04C641.554 497.28 654.967 498.402 668.265 500.398H668.363C670.509 500.722 672.641 501.073 674.759 501.438L675.319 501.536C677.367 501.887 679.401 502.267 681.448 502.675L682.22 502.829C684.225 503.223 686.217 503.63 688.209 504.065L689.05 504.263C691.041 504.698 693.02 505.162 694.997 505.668L695.811 505.864C697.802 506.356 699.794 506.863 701.771 507.396L702.402 507.564C704.464 508.112 706.511 508.689 708.545 509.279H708.699C717.423 511.837 726.035 514.768 734.534 518.075H734.632C736.189 518.679 737.732 519.326 739.274 519.958L741.364 520.815C742.683 521.363 743.987 521.926 745.291 522.502L748.097 523.71C749.275 524.23 750.439 524.778 751.617 525.312C752.795 525.845 753.706 526.281 754.744 526.717C755.782 527.152 756.891 527.743 757.942 528.263C758.994 528.783 760.229 529.387 761.351 529.963L764.296 531.467C765.502 532.099 766.708 532.732 767.9 533.378L770.606 534.782C771.883 535.485 773.145 536.188 774.407 536.919L776.876 538.324C778.278 539.111 779.555 539.898 780.888 540.713L782.683 541.795C777.77 567.76 769.481 592.969 758.026 616.774C748.612 598.208 735.257 581.931 718.898 569.084C702.54 556.237 683.574 547.133 663.331 542.408C643.088 537.684 622.058 537.454 601.717 541.735C581.376 546.017 562.216 554.706 545.582 567.192C528.948 579.679 515.243 595.661 505.428 614.017C495.612 632.373 489.924 652.658 488.763 673.45C487.602 694.242 490.996 715.037 498.707 734.375C506.418 753.713 518.258 771.127 533.398 785.395C530.018 785.957 526.624 786.477 523.202 786.912L521.364 787.08C520.775 787.164 520.172 787.221 519.569 787.291C454.983 794.671 389.737 781.085 333.435 748.532C277.132 715.979 232.745 666.179 206.808 606.46C194.497 578.397 186.509 548.624 183.118 518.159C185.587 519.311 188.06 520.436 190.538 521.532H190.608C215.482 532.584 241.445 540.991 268.069 546.614L268.434 546.685C273.604 547.771 278.808 548.755 284.044 549.636L285.096 549.804C287.228 550.155 289.304 550.479 291.478 550.802L293.272 551.055C295.418 551.364 297.565 551.659 299.725 551.926L300.818 552.066H301.239C303.497 552.333 305.755 552.586 308.013 552.811L308.729 552.896L310.72 553.078L313.749 553.359L316.736 553.612L319.725 553.837C320.706 553.921 321.688 553.978 322.684 554.048L325.741 554.23L328.546 554.385L331.8 554.525L334.437 554.624L337.999 554.722H348.658C350.986 554.722 353.329 554.722 355.671 554.638H357.803C360.425 554.567 363.035 554.456 365.657 554.329L368.742 554.174C371.028 554.047 373.314 553.893 375.601 553.725C376.807 553.64 378.013 553.542 379.219 553.43C381.056 553.275 382.894 553.12 384.731 552.938L388.293 552.572C390.649 552.319 393.006 552.052 395.306 551.757L399.093 551.251L403.833 550.577C405.544 550.324 407.241 550.057 408.952 549.776L414.311 548.877L418.251 548.16L423.96 547.036L428.63 546.052L433.469 544.984L437.017 544.155C439.373 543.593 441.711 543.003 444.029 542.385L447.325 541.514C449.261 540.994 451.197 540.459 453.118 539.911C454.142 539.616 455.166 539.335 456.176 539.026C458.476 538.352 460.748 537.621 463.034 536.946L465.74 536.075C468.307 535.246 470.86 534.404 473.412 533.519L475.264 532.872C477.583 532.057 479.888 531.218 482.179 530.356L483.932 529.71C486.596 528.698 489.252 527.659 491.897 526.591L493.707 525.86C496.512 524.722 499.191 523.583 501.926 522.389C504.661 521.194 507.536 519.958 510.467 518.806C530.448 510.768 551.223 504.876 572.444 501.228C573.566 501.031 574.689 500.862 575.811 500.693L580.019 500.033L583.328 499.583L587.115 499.092L590.691 498.698L594.197 498.333L598.026 497.995L601.238 497.742L605.334 497.476L608.237 497.321C609.64 497.321 611.154 497.181 612.612 497.139H615.123L619.864 497.04H628.11ZM594.786 633.141C606.627 624.243 621.33 620.04 636.074 621.338C650.819 622.635 664.565 629.343 674.677 640.172C684.788 651.001 690.552 665.19 690.862 680.016C691.172 694.841 686.007 709.26 676.357 720.504C669.682 725.975 662.781 731.159 655.656 736.059C642.18 742.191 626.918 743.122 612.799 738.673C598.68 734.223 586.699 724.707 579.153 711.949C571.608 699.192 569.03 684.092 571.915 669.548C574.8 655.003 582.945 642.038 594.786 633.141ZM279.107 395.952C284.072 396.008 289.037 396.154 294.002 396.388L296.344 396.5C299.373 396.669 302.403 396.866 305.433 397.091L306.625 397.175L311.632 397.61L313.385 397.765C316.456 398.06 319.514 398.397 322.571 398.748L323.903 398.903C325.642 399.114 327.368 399.338 329.093 399.577L329.948 399.69C333.202 400.14 336.447 400.608 339.682 401.095L341.085 401.334C346.302 402.186 351.501 403.147 356.681 404.215L358.167 404.523C363.328 405.601 368.471 406.777 373.595 408.051L375.18 408.458C378.279 409.245 381.379 410.06 384.465 410.932L385.46 411.198L390.327 412.604L392.066 413.138C394.871 413.953 397.564 414.809 400.299 415.694L402.347 416.355C403.861 416.847 405.376 417.353 406.877 417.873L409.037 418.646C411.519 419.503 413.988 420.402 416.456 421.302L419.135 422.299C420.537 422.819 421.94 423.339 423.259 423.887L428.237 425.854L432.543 427.639C433.637 428.088 434.731 428.557 435.825 429.044L439.415 430.59C441.336 431.433 443.259 432.29 445.166 433.161L448.476 434.707L452.543 436.632L456.161 438.318C457.9 439.176 459.612 440.047 461.337 440.918L464.142 442.322C465.951 443.264 467.747 444.205 469.542 445.133L470.72 445.766L468.938 446.538C466.059 447.896 463.16 449.157 460.243 450.318C416.304 467.804 368.915 474.836 321.804 470.861C274.692 466.887 229.144 452.015 188.742 427.414C188.153 427.035 187.536 426.683 186.947 426.304C188.387 418.875 190.113 411.503 192.123 404.187L193.385 403.934C195.474 403.512 197.592 403.119 199.668 402.726L201.954 402.304C204.38 401.868 206.793 401.461 209.22 401.067L211.744 400.688C213.581 400.392 215.433 400.126 217.284 399.873L219.822 399.507C222.136 399.198 224.437 398.917 226.751 398.65L229.893 398.299L234.872 397.779C236.274 397.653 237.677 397.512 239.079 397.399C240.804 397.245 242.515 397.104 244.24 396.978L247.887 396.725L252.375 396.458L257.985 396.205L261.729 396.064L265.825 395.952H279.107ZM363.779 205.441C417.06 182.195 475.874 174.729 533.258 183.927C534.52 184.067 535.783 184.263 537.031 184.488L537.845 184.615C668.924 208.194 771.112 316.195 786.203 450.191L784.197 449.278L779.878 447.312L775.529 445.442C774.001 444.782 772.458 444.135 770.93 443.503C769.401 442.871 768.124 442.365 766.722 441.803C765.319 441.241 763.51 440.524 761.883 439.892C760.48 439.372 759.078 438.866 757.76 438.36C756.091 437.728 754.408 437.124 752.725 436.52L748.671 435.114L743.468 433.372L739.457 432.093L734.113 430.463L730.13 429.297L724.702 427.779L720.691 426.711C718.868 426.233 717.045 425.783 715.222 425.306C714.282 425.067 713.356 424.815 712.416 424.59L710.579 424.267L709.766 424.069L708.952 423.887C706.147 423.254 703.426 422.664 700.663 422.088L699.794 421.92C696.933 421.348 694.071 420.8 691.21 420.275H690.901C688.003 419.751 685.091 419.282 682.164 418.87L681.098 418.702C678.223 418.267 675.333 417.858 672.458 417.493L671.645 417.396C665.707 416.637 659.77 416.023 653.833 415.555L652.894 415.484C650.032 415.26 647.166 415.072 644.296 414.922H643.146C640.228 414.781 637.325 414.655 634.408 414.57H634.127C631.322 414.486 628.471 414.439 625.572 414.43H623.622C621.126 414.43 618.63 414.43 616.147 414.515H614.408C611.603 414.585 608.798 414.669 606.077 414.796H605.235C602.683 414.922 600.116 415.077 597.563 415.245L595.727 415.372C593.062 415.569 590.411 415.793 587.746 416.046L585.797 416.243C583.174 416.496 580.537 416.776 577.914 417.1H577.396L574.745 415.062C572.875 413.667 571.042 412.294 569.247 410.945C568.083 410.074 566.905 409.231 565.727 408.374L563.692 406.885L560.173 404.397L558.068 402.908C556.666 401.939 555.264 400.983 553.861 400.027L552.374 398.974C550.972 397.976 549.443 397.006 547.984 396.036L546.652 395.151L541.926 392.102L540.874 391.413C539.289 390.401 537.69 389.404 536.077 388.406L535.039 387.76C533.426 386.762 531.813 385.779 530.187 384.81L529.163 384.191C527.564 383.236 525.979 382.294 524.38 381.381C523.987 381.156 523.609 380.917 523.216 380.706C521.631 379.779 520.032 378.879 518.434 377.966L517.228 377.277L512.347 374.58L511.196 373.947L506.414 371.39L505.109 370.701L500.383 368.242L498.98 367.525L494.31 365.249L492.81 364.49L488.181 362.256L486.596 361.497C485.109 360.781 483.609 360.092 482.108 359.39L480.341 358.575L475.979 356.607L474.029 355.736L469.822 353.896L467.761 352.996L463.553 351.268L461.322 350.341L457.312 348.725L454.899 347.755L451.015 346.266L448.447 345.282L444.688 343.877L441.968 342.879L438.336 341.586L435.446 340.574L431.897 339.366L428.91 338.354L425.404 337.23L422.347 336.232L418.883 335.165L415.741 334.209C414.605 333.858 413.454 333.535 412.318 333.197L409.121 332.271L405.727 331.314L402.487 330.43L399.051 329.516L395.825 328.673L392.305 327.802L389.135 327.015L385.545 326.172L382.445 325.455L378.714 324.64L376.063 324.063H375.783L375.278 323.951C372.754 323.417 370.22 322.907 367.677 322.42L365.854 322.083C363.75 321.676 361.646 321.296 359.542 320.931L357.018 320.495C355.012 320.144 353.006 319.82 351 319.511L348.771 319.16C343.329 318.317 337.859 317.586 332.389 316.926L330.117 316.673L324.016 316.013L321.59 315.773C319.346 315.549 317.088 315.352 314.844 315.169L313.343 315.043C310.538 314.818 307.765 314.621 305.025 314.452L303.469 314.354C301.225 314.228 298.995 314.101 296.751 314.003L294.311 313.904C292.263 313.82 290.201 313.736 288.153 313.68H285.896C280.398 313.539 274.886 313.497 269.388 313.539H267.046C265.04 313.539 263.048 313.539 261.057 313.651H258.406C256.317 313.722 254.199 313.792 252.165 313.891L250.117 313.975C247.41 314.101 244.718 314.242 242.011 314.425L240.019 314.564C237.957 314.705 235.909 314.846 233.861 315.015L232.613 315.099C264.98 266.742 310.498 228.688 363.779 205.441Z" fill="white"/>
</svg>
